<svg width="22.000000" height="22.000000" viewBox="0 0 22 22" fill="none" xmlns="http://www.w3.org/2000/svg" xmlns:xlink="http://www.w3.org/1999/xlink">
	<desc>
			Created with Pixso.
	</desc>
	<defs/>
	<path id="Vector" d="M11 0C8.01257 0 7.63721 0.0131836 6.46423 0.0664062C5.29407 0.118652 4.49475 0.305176 3.79431 0.578125C3.07056 0.858398 2.45703 1.23438 1.84619 1.84619C1.23364 2.45898 0.858276 3.07227 0.576172 3.79395C0.304443 4.49463 0.118652 5.29297 0.0662842 6.46387C0.012085 7.63672 0 8.01318 0 10.9995C0 13.9878 0.0130615 14.3623 0.0662842 15.5352C0.118652 16.7051 0.304443 17.5063 0.576172 18.2051C0.858276 18.9287 1.23364 19.542 1.84619 20.1528C2.45703 20.7656 3.07056 21.1411 3.79431 21.4229C4.49475 21.6948 5.29309 21.8804 6.46423 21.9346C7.63721 21.9868 8.01355 22 11 22C13.9865 22 14.3628 21.9868 15.5358 21.9346C16.7059 21.8804 17.5052 21.6958 18.2057 21.4229C18.9294 21.1411 19.543 20.7656 20.1538 20.1528C20.7664 19.542 21.1417 18.9287 21.4238 18.2051C21.6956 17.5063 21.8813 16.7061 21.9337 15.5352C21.9879 14.3623 22 13.9878 22 10.9995C22 8.01221 21.9869 7.63672 21.9337 6.46387C21.8813 5.29395 21.6956 4.49463 21.4238 3.79395C21.1417 3.07129 20.7664 2.45801 20.1538 1.84619C19.543 1.2334 18.9294 0.858398 18.2057 0.578125C17.5052 0.306152 16.7069 0.118652 15.5358 0.0664062C14.3628 0.012207 13.9865 0 11 0ZM11 1.98242C13.938 1.98242 14.2844 1.99365 15.4452 2.0459C16.5182 2.0957 17.1 2.27393 17.4885 2.42432C18.0012 2.62402 18.3673 2.8623 18.7529 3.24805C19.1387 3.6333 19.3767 3.99854 19.5767 4.51318C19.7269 4.8999 19.9072 5.48242 19.9548 6.55566C20.009 7.71631 20.0183 8.06348 20.0183 11.0005C20.0183 13.9375 20.0081 14.2866 19.9548 15.4453C19.9062 16.5186 19.7269 17.1001 19.5767 17.4888C19.3767 18.0015 19.1387 18.3682 18.7529 18.7529C18.3673 19.1387 18.0021 19.377 17.4885 19.5767C17.1 19.7271 16.5182 19.9072 15.4452 19.9551C14.2844 20.0093 13.937 20.0205 11 20.0205C8.06299 20.0205 7.71375 20.0093 6.55481 19.9551C5.48181 19.9062 4.90002 19.7271 4.51147 19.5767C3.99878 19.377 3.63269 19.1387 3.24707 18.7529C2.86133 18.3691 2.62317 18.0024 2.42334 17.4888C2.27307 17.1001 2.09277 16.5186 2.04517 15.4453C1.99097 14.2866 1.98169 13.9375 1.98169 11.0005C1.98169 8.06348 1.99194 7.71631 2.04517 6.55566C2.09375 5.48242 2.27307 4.90088 2.42334 4.51318C2.62317 3.99854 2.86133 3.6333 3.24707 3.24805C3.63269 2.8623 3.99792 2.62402 4.51147 2.42432C4.90002 2.27393 5.48181 2.0957 6.55481 2.0459C7.71558 1.99365 8.06299 1.98242 11 1.98242Z" fill="#000000" fill-opacity="1.000000" fill-rule="nonzero"/>
	<path id="Vector" d="M11 14.6675C8.97534 14.6675 7.33264 13.0249 7.33264 11.0005C7.33264 8.97559 8.97534 7.33398 11 7.33398C13.0245 7.33398 14.6672 8.97461 14.6672 11.0005C14.6672 13.0259 13.0245 14.6675 11 14.6675ZM11 5.35156C7.87988 5.35156 5.35193 7.88135 5.35193 10.9995C5.35193 14.1191 7.87988 16.6489 11 16.6489C14.12 16.6489 16.6479 14.1191 16.6479 10.9995C16.6479 7.88037 14.12 5.35156 11 5.35156Z" fill="#000000" fill-opacity="1.000000" fill-rule="nonzero"/>
	<path id="Vector" d="M18.1926 5.12842C18.1926 5.85693 17.6016 6.44873 16.8722 6.44873C16.1438 6.44873 15.5526 5.85693 15.5526 5.12842C15.5526 4.40039 16.1438 3.80811 16.8722 3.80811C17.6016 3.80811 18.1926 4.40039 18.1926 5.12842Z" fill="#000000" fill-opacity="1.000000" fill-rule="nonzero"/>
</svg>
