<svg width="22.000000" height="22.000000" viewBox="0 0 22 22" fill="none" xmlns="http://www.w3.org/2000/svg" xmlns:xlink="http://www.w3.org/1999/xlink">
	<desc>
			Created with Pixso.
	</desc>
	<defs/>
	<path id="Vector" d="M11.001 0C4.92444 0 0 4.92383 0 10.9995C0 15.5049 2.70862 19.3711 6.58508 21.0747C6.55347 20.3066 6.57764 19.3833 6.77576 18.5483C6.98682 17.6567 8.19092 12.5552 8.19092 12.5552C8.19092 12.5552 7.83948 11.8521 7.83948 10.8135C7.83948 9.18359 8.78418 7.96729 9.96143 7.96729C10.9619 7.96729 11.4435 8.7168 11.4435 9.61768C11.4435 10.6255 10.8029 12.1265 10.4728 13.5225C10.1975 14.6895 11.0576 15.6416 12.2087 15.6416C14.2935 15.6416 15.6957 12.9644 15.6957 9.7915C15.6957 7.38135 14.0731 5.57764 11.119 5.57764C7.78271 5.57764 5.70276 8.06494 5.70276 10.8433C5.70276 11.8027 5.98633 12.479 6.42981 13.0024C6.63342 13.2432 6.65955 13.3389 6.58887 13.6162C6.53394 13.8169 6.41406 14.3062 6.36377 14.4976C6.29041 14.7778 6.06445 14.876 5.81335 14.7749C4.27539 14.147 3.55945 12.4634 3.55945 10.5698C3.55945 7.44531 6.19458 3.69922 11.4221 3.69922C15.6232 3.69922 18.3857 6.73877 18.3857 10.001C18.3857 14.3164 15.9858 17.541 12.4506 17.541C11.2632 17.541 10.1464 16.8979 9.76428 16.1689C9.76428 16.1689 9.12451 18.7026 8.98975 19.1929C8.7572 20.04 8.2998 20.8887 7.88318 21.5498C8.87256 21.8408 9.91772 22 11.0018 22C17.0765 22 22 17.0752 22 11.0005C22 4.92383 17.0765 0.000976562 11.0018 0.000976562L11.001 0Z" fill="#000000" fill-opacity="1.000000" fill-rule="nonzero"/>
</svg>
