<svg width="40.000000" height="40.000000" viewBox="0 0 40 40" fill="none" xmlns="http://www.w3.org/2000/svg" xmlns:xlink="http://www.w3.org/1999/xlink">
	<desc>
			Created with Pixso.
	</desc>
	<defs>
		<filter id="filter_1_36_dd" x="0.000000" y="0.000000" width="40.000000" height="40.000000" filterUnits="userSpaceOnUse" color-interpolation-filters="sRGB">
			<feFlood flood-opacity="0" result="BackgroundImageFix"/>
			<feColorMatrix in="SourceAlpha" type="matrix" values="0 0 0 0 0 0 0 0 0 0 0 0 0 0 0 0 0 0 127 0" result="hardAlpha"/>
			<feOffset dx="0" dy="4"/>
			<feGaussianBlur stdDeviation="1.33333"/>
			<feComposite in2="hardAlpha" operator="out" k2="-1" k3="1"/>
			<feColorMatrix type="matrix" values="0 0 0 0 0 0 0 0 0 0 0 0 0 0 0 0 0 0 0.25 0"/>
			<feBlend mode="normal" in2="BackgroundImageFix" result="effect_dropShadow_1"/>
			<feBlend mode="normal" in="SourceGraphic" in2="effect_dropShadow_1" result="shape"/>
		</filter>
	</defs>
	<g filter="url(#filter_1_36_dd)">
		<path id="Vector" d="M22.8774 20.2056L33.8673 32L35.9999 30.3883L25.01 18.594L22.8774 20.2056Z" fill="#000000" fill-opacity="1.000000" fill-rule="nonzero"/>
		<path id="Vector" d="M16.6799 2.79818C11.4014 2.79818 7.10791 6.87177 7.10791 11.8794C7.10791 16.887 11.4014 20.9606 16.6799 20.9606C21.9585 20.9606 26.2518 16.887 26.2518 11.8794C26.2518 6.87177 21.9585 2.79818 16.6799 2.79818ZM16.6799 23.7613C9.68738 23.7613 4 18.4317 4 11.8807C4 5.32968 9.68872 0 16.6799 0C23.6725 0 29.3612 5.32968 29.3612 11.8807C29.3612 18.4317 23.6725 23.7613 16.6799 23.7613Z" fill="#000000" fill-opacity="1.000000" fill-rule="nonzero"/>
	</g>
</svg>
