<svg width="32.000000" height="32.000000" viewBox="0 0 32 32" fill="none" xmlns="http://www.w3.org/2000/svg" xmlns:xlink="http://www.w3.org/1999/xlink">
	<desc>
			Created with Pixso.
	</desc>
	<defs/>
	<path id="Vector" d="M18.8774 20.2056L29.8673 32L31.9999 30.3883L21.01 18.594L18.8774 20.2056Z" fill="#000000" fill-opacity="1.000000" fill-rule="nonzero"/>
	<path id="Vector" d="M12.6799 2.79818C7.40137 2.79818 3.10791 6.87177 3.10791 11.8794C3.10791 16.887 7.40137 20.9606 12.6799 20.9606C17.9585 20.9606 22.2518 16.887 22.2518 11.8794C22.2518 6.87177 17.9585 2.79818 12.6799 2.79818ZM12.6799 23.7613C5.68738 23.7613 0 18.4317 0 11.8807C0 5.32968 5.68872 0 12.6799 0C19.6725 0 25.3612 5.32968 25.3612 11.8807C25.3612 18.4317 19.6725 23.7613 12.6799 23.7613Z" fill="#000000" fill-opacity="1.000000" fill-rule="nonzero"/>
</svg>
